<mxfile host="app.diagrams.net" modified="2021-09-25T11:49:59.807Z" agent="5.0 (X11)" etag="EqhCTxrCQ7LbZ1FykIyM" version="15.3.2" type="github">
  <diagram id="O6yu9fiGKU3222D0tU-m" name="Page-1">
    <mxGraphModel dx="1305" dy="791" grid="1" gridSize="10" guides="1" tooltips="1" connect="1" arrows="1" fold="1" page="1" pageScale="1" pageWidth="827" pageHeight="1169" math="0" shadow="0">
      <root>
        <mxCell id="0" />
        <mxCell id="1" parent="0" />
        <mxCell id="rjNniomhfpN_fK9u_SwE-64" value="" style="ellipse;whiteSpace=wrap;html=1;aspect=fixed;labelBackgroundColor=#E8BED9;fontSize=8;strokeColor=#10739e;strokeWidth=2;fillColor=#B1DDF0;" vertex="1" parent="1">
          <mxGeometry x="150" y="100" width="570" height="570" as="geometry" />
        </mxCell>
        <mxCell id="rjNniomhfpN_fK9u_SwE-65" value="" style="ellipse;whiteSpace=wrap;html=1;aspect=fixed;labelBackgroundColor=#E8BED9;fontSize=8;strokeColor=#ae4132;strokeWidth=2;fillColor=#FAD9D5;" vertex="1" parent="1">
          <mxGeometry x="180" y="210" width="375" height="375" as="geometry" />
        </mxCell>
        <mxCell id="rjNniomhfpN_fK9u_SwE-66" value="" style="ellipse;whiteSpace=wrap;html=1;aspect=fixed;labelBackgroundColor=#E8BED9;fontSize=8;strokeColor=#b46504;strokeWidth=2;fillColor=#FAD7AC;" vertex="1" parent="1">
          <mxGeometry x="200" y="310" width="200" height="200" as="geometry" />
        </mxCell>
        <mxCell id="rjNniomhfpN_fK9u_SwE-67" value="" style="ellipse;whiteSpace=wrap;html=1;aspect=fixed;labelBackgroundColor=#E8BED9;fontSize=8;strokeColor=#CC0000;strokeWidth=5;fillColor=none;gradientColor=#FFFFFF;fontColor=default;" vertex="1" parent="1">
          <mxGeometry x="330" y="405" width="115" height="115" as="geometry" />
        </mxCell>
        <mxCell id="rjNniomhfpN_fK9u_SwE-68" value="" style="ellipse;whiteSpace=wrap;html=1;aspect=fixed;labelBackgroundColor=#E8BED9;fontSize=8;strokeColor=#336600;strokeWidth=5;fillColor=none;labelPosition=center;verticalLabelPosition=middle;align=center;verticalAlign=middle;fontFamily=Helvetica;gradientDirection=west;gradientColor=#336600;" vertex="1" parent="1">
          <mxGeometry x="100" y="420" width="190" height="190" as="geometry" />
        </mxCell>
        <mxCell id="rjNniomhfpN_fK9u_SwE-70" value="&lt;font style=&quot;font-size: 15px&quot;&gt;&lt;b&gt;&lt;font style=&quot;font-size: 15px&quot;&gt;Sztuczna inteligencja&lt;br&gt;&lt;/font&gt;&lt;/b&gt;&lt;/font&gt;" style="text;html=1;strokeColor=none;fillColor=none;align=center;verticalAlign=middle;whiteSpace=wrap;rounded=0;labelBackgroundColor=#B1DDF0;fontFamily=Helvetica;fontSize=8;" vertex="1" parent="1">
          <mxGeometry x="445" y="140" width="40" height="20" as="geometry" />
        </mxCell>
        <mxCell id="rjNniomhfpN_fK9u_SwE-71" value="&lt;b&gt;&lt;font style=&quot;font-size: 15px&quot;&gt;Uczenie maszynowe&lt;br&gt;&lt;/font&gt;&lt;/b&gt;" style="text;html=1;strokeColor=none;fillColor=none;align=center;verticalAlign=middle;whiteSpace=wrap;rounded=0;labelBackgroundColor=#FAD9D5;fontFamily=Helvetica;fontSize=8;" vertex="1" parent="1">
          <mxGeometry x="360" y="250" width="40" height="20" as="geometry" />
        </mxCell>
        <mxCell id="rjNniomhfpN_fK9u_SwE-72" value="&lt;span style=&quot;&quot;&gt;&lt;b&gt;&lt;font style=&quot;font-size: 15px&quot;&gt;Sztuczne neuronowe sieci&lt;br&gt;&lt;/font&gt;&lt;/b&gt;&lt;/span&gt;" style="text;html=1;strokeColor=none;fillColor=none;align=center;verticalAlign=middle;whiteSpace=wrap;rounded=0;labelBackgroundColor=#FAD7AC;fontFamily=Helvetica;fontSize=8;" vertex="1" parent="1">
          <mxGeometry x="280" y="360" width="40" height="20" as="geometry" />
        </mxCell>
        <mxCell id="rjNniomhfpN_fK9u_SwE-73" value="&lt;div align=&quot;center&quot;&gt;&lt;font style=&quot;font-size: 15px&quot;&gt;&lt;b&gt;&lt;font style=&quot;font-size: 15px&quot; color=&quot;#CC0000&quot;&gt;Głębokie uczenie&lt;/font&gt;&lt;/b&gt;&lt;/font&gt;&lt;br&gt;&lt;/div&gt;" style="text;html=1;strokeColor=none;fillColor=none;align=center;verticalAlign=middle;whiteSpace=wrap;rounded=0;labelBackgroundColor=none;fontFamily=Helvetica;fontSize=8;fontColor=default;" vertex="1" parent="1">
          <mxGeometry x="367.5" y="452.5" width="40" height="20" as="geometry" />
        </mxCell>
        <mxCell id="rjNniomhfpN_fK9u_SwE-75" value="&lt;font style=&quot;font-size: 15px&quot; color=&quot;#336600&quot;&gt;&lt;b&gt;Eksploracja danych&lt;br&gt;&lt;/b&gt;&lt;/font&gt;" style="text;html=1;strokeColor=none;fillColor=none;align=center;verticalAlign=middle;whiteSpace=wrap;rounded=0;labelBackgroundColor=none;fontFamily=Helvetica;fontSize=8;fontColor=default;" vertex="1" parent="1">
          <mxGeometry x="175" y="500" width="40" height="20" as="geometry" />
        </mxCell>
      </root>
    </mxGraphModel>
  </diagram>
</mxfile>
